<svg width="1200" height="1500" viewBox="0 0 1200 1500" fill="none" xmlns="http://www.w3.org/2000/svg">
  <rect width="1200" height="1500" fill="#FFF8F1"/>
  <rect x="88" y="88" width="1024" height="1324" rx="32" fill="#FFFFFF"/>
  <rect x="154" y="156" width="420" height="1188" rx="24" fill="#F4E1D5"/>
  <rect x="626" y="156" width="420" height="548" rx="24" fill="#E8C3B9"/>
  <rect x="626" y="758" width="420" height="586" rx="24" fill="#F7ECE4"/>
  <rect x="224" y="246" width="280" height="340" rx="140" fill="#D9B1A5"/>
  <rect x="688" y="254" width="300" height="300" rx="150" fill="#D9B1A5"/>
  <text x="212" y="700" fill="#22181F" font-size="64" font-family="Georgia, serif">Our Story</text>
  <rect x="212" y="748" width="286" height="14" rx="7" fill="#7D5B55"/>
  <rect x="212" y="790" width="286" height="14" rx="7" fill="#7D5B55" fill-opacity=".7"/>
  <rect x="212" y="832" width="248" height="14" rx="7" fill="#7D5B55" fill-opacity=".5"/>
  <text x="686" y="838" fill="#22181F" font-size="56" font-family="Georgia, serif">Moments</text>
  <rect x="688" y="888" width="280" height="14" rx="7" fill="#7D5B55"/>
  <rect x="688" y="930" width="300" height="14" rx="7" fill="#7D5B55" fill-opacity=".7"/>
  <rect x="688" y="972" width="252" height="14" rx="7" fill="#7D5B55" fill-opacity=".5"/>
</svg>
